PathFileType	4	(X/Y/Z)	C:\Users\Vitor Bertoli\OneDrive\Documents\Yolotestes\IMG_0212_Sports2D\IMG_0212_Sports2D_m_person00.trc
DataRate	CameraRate	NumFrames	NumMarkers	Units	OrigDataRate	OrigDataStartFrame	OrigNumFrames
112	112	9	22	m	112	250	401
Frame#	Time	Hip			RHip			RKnee			RAnkle			RBigToe			RSmallToe			RHeel			LHip			LKnee			LAnkle			LBigToe			LSmallToe			LHeel			Neck			Head			Nose			RShoulder			RElbow			RWrist			LShoulder			LElbow			LWrist		
		X1	Y1	Z1	X2	Y2	Z2	X3	Y3	Z3	X4	Y4	Z4	X5	Y5	Z5	X6	Y6	Z6	X7	Y7	Z7	X8	Y8	Z8	X9	Y9	Z9	X10	Y10	Z10	X11	Y11	Z11	X12	Y12	Z12	X13	Y13	Z13	X14	Y14	Z14	X15	Y15	Z15	X16	Y16	Z16	X17	Y17	Z17	X18	Y18	Z18	X19	Y19	Z19	X20	Y20	Z20	X21	Y21	Z21	X22	Y22	Z22
250	2.232142857142857	8.177805817990107	0.9095351973768601	0.0	8.166321223290673	0.9260062456049065	0.0	8.28295112880334	0.49509820852223835	0.0	8.10742645568091	0.0968926425790128	0.0	8.289200501872006	0.011084561386332724	0.0	8.246458855257323	-0.00212672417313163	0.0	8.047530117267415	0.05407750488632837	0.0	8.191254485083286	0.9246214450503725	0.0	8.223748680134202	0.507578918717416	0.0	7.874430442157	0.6668238898793838	0.0	7.696486205448084	0.5984198424929266	0.0	7.702716649598393	0.6009252014931945	0.0	7.832264260837628	0.7324305086408569	0.0	8.377529497564394	1.4482808451061313	0.0	8.501193055905976	1.6810244096484748	0.0	8.534091803974913	1.5342852969018588	0.0	8.31331964355848	1.383128583729288	0.0	8.208652491710708	1.1069600934431334	0.0	8.44317896492124	1.006675865339195	0.0	8.367563027222571	1.3914771218110074	0.0	8.19055640853105	1.1852044336062633	0.0	8.315748325303046	1.0145357195800662	0.0
251	2.2410714285714284	8.226408390659076	0.9080344882222818	0.0	8.20939424419412	0.9236878064318625	0.0	8.305614692264749	0.4887100598231867	0.0	8.109129078981457	0.09898757474311223	0.0	8.288054912721872	0.006192480696561787	0.0	8.242776459397826	-0.00533575100228061	0.0	8.046690521731364	0.05694200005785519	0.0	8.247760089916971	0.9214478532240856	0.0	8.309043563349617	0.514349803229259	0.0	7.955352124993692	0.6532553338568523	0.0	7.7978697202523595	0.5708182486882389	0.0	7.8004516886176	0.5764734075376428	0.0	7.907706693036701	0.7139319263577176	0.0	8.424577132618621	1.4467766187676123	0.0	8.550661741344431	1.6798796821846942	0.0	8.581039470570012	1.5327452602306324	0.0	8.368261097497875	1.3792739272412253	0.0	8.28179598184008	1.0985484561396746	0.0	8.521206940155514	1.0235077231007805	0.0	8.403154737994994	1.3942467887890724	0.0	8.224232960496797	1.200111058286188	0.0	8.344135996070518	1.0310522264380835	0.0
252	2.25	8.275737892375146	0.9065024488946777	0.0	8.253337526450196	0.9211154794318724	0.0	8.326911700388624	0.48353923317234637	0.0	8.111091391079777	0.10196881572729893	0.0	8.286640967511167	0.002363231588954423	0.0	8.23919275233911	-0.007393038825283579	0.0	8.046240600592956	0.06070987144156388	0.0	8.30447830655737	0.9181389519167117	0.0	8.395280192612619	0.5238507335568349	0.0	8.03602851305677	0.6367171858035519	0.0	7.902583915698383	0.5400859618278774	0.0	7.901148274246467	0.5490356587711656	0.0	7.982703197143278	0.6917011545954463	0.0	8.471580715949955	1.446246237242105	0.0	8.600974378717588	1.6794302830388497	0.0	8.628383660176267	1.532010843820459	0.0	8.423694281947753	1.3769020093751498	0.0	8.355261858843281	1.0930968769492924	0.0	8.596663896894023	1.0434453955258491	0.0	8.438751812131992	1.3981685112523319	0.0	8.25756840280306	1.2182492105741531	0.0	8.369167443701405	1.0493224511402297	0.0
253	2.258928571428571	8.325837816675167	0.9049567951903871	0.0	8.298270028643543	0.9183982204319548	0.0	8.347085054761479	0.4799522453510189	0.0	8.113619958751345	0.1059714466635823	0.0	8.284912004573311	-0.0005433603910345902	0.0	8.235704012446961	-0.008345131986777804	0.0	8.046528018316334	0.06560196039174236	0.0	8.361332311074314	0.9148412189517581	0.0	8.481325690585493	0.5359542924357067	0.0	8.116820360399245	0.617242823510945	0.0	8.010171559011757	0.5066795374279549	0.0	8.004555071990213	0.5188828103004434	0.0	8.058091868657302	0.6658734761405971	0.0	8.51869614224084	1.446903930555687	0.0	8.652011677090835	1.6797171402227682	0.0	8.676235265586792	1.5322546220429072	0.0	8.479505677181006	1.3763017438294762	0.0	8.428564567439595	1.0905462298407649	0.0	8.66918470555018	1.0657408385608458	0.0	8.47505439578228	1.4031893695397608	0.0	8.291101349976493	1.2386815001244698	0.0	8.391370641547354	1.0679207339576333	0.0
254	2.267857142857143	8.376726111437574	0.9035026623047222	0.0	8.344271422604905	0.9157647284672734	0.0	8.366480775295976	0.47837194066618144	0.0	8.117028957300722	0.1112146304954932	0.0	8.282790076877243	-0.002604066680297977	0.0	8.232225374579112	-0.008188574263864047	0.0	8.04794219003054	0.07196214070352108	0.0	8.41830829729991	0.9117961121909408	0.0	8.56614034541235	0.5503500467252463	0.0	8.198138361444272	0.594969942481532	0.0	8.11978093308624	0.4712645314602024	0.0	8.11021747360843	0.48651123468869406	0.0	8.134734223345971	0.6365715570641739	0.0	8.566037951528727	1.4488793362774781	0.0	8.70354568584417	1.6807755068748909	0.0	8.724615806401985	1.533604448281699	0.0	8.535612705535817	1.3776522263128692	0.0	8.501251771397767	1.090728825746664	0.0	8.738604057439554	1.0895525832823074	0.0	8.512561649973266	1.409202378195614	0.0	8.325321870323656	1.2602771336997507	0.0	8.412066985683671	1.0856046602577047	0.0
255	2.276785714285714	8.428400220097258	0.9023527075586018	0.0	8.391371434767434	0.9135346578784813	0.0	8.385534152042238	0.4792226502418139	0.0	8.121614627730443	0.11795132379346161	0.0	8.280155331014763	-0.003770765541384682	0.0	8.228640686850378	-0.006833005224782106	0.0	8.050867133983024	0.0801895112328098	0.0	8.47541115244984	0.9093229343162609	0.0	8.64892552806711	0.5665477733832348	0.0	8.28029523726025	0.5702146864241278	0.0	8.230349514241977	0.43479377829151483	0.0	8.217559434367251	0.4527959711207107	0.0	8.213229115415299	0.6040283138606295	0.0	8.613663854258116	1.452182497593196	0.0	8.755309843761953	1.682632643808819	0.0	8.773481034663783	1.536081762505702	0.0	8.591983481608514	1.3809689949970805	0.0	8.572929893968757	1.0933866845122555	0.0	8.804933409229658	1.1140027275261741	0.0	8.551496648578471	1.4160484727471268	0.0	8.360535682826912	1.2819629598949702	0.0	8.432896058195166	1.1015644121092028	0.0
256	2.2857142857142856	8.48084716318753	0.9017787384723499	0.0	8.43956426813143	0.9120566987112682	0.0	8.404755464012052	0.4828413298627931	0.0	8.127653695361282	0.12644779023236125	0.0	8.276879836621282	-0.0038064610548023585	0.0	8.224888134865324	-0.00404567198433647	0.0	8.055665386816308	0.09068793460040023	0.0	8.532609745582665	0.9077659281830144	0.0	8.729115997138242	0.5839189339474218	0.0	8.363426117908823	0.543491369684328	0.0	8.341066724042763	0.3983680939359162	0.0	8.326071312446635	0.4188602374575419	0.0	8.293783018559173	0.5687467153891784	0.0	8.661595280725447	1.4566920710958198	0.0	8.807057312257593	1.6852902374663394	0.0	8.822759699385546	1.5395627974004593	0.0	8.648630270810601	1.3860770184258384	0.0	8.643249950059058	1.0981939524487363	0.0	8.868297896070152	1.1382194941262809	0.0	8.591840670979954	1.4235242997897972	0.0	8.396833894726552	1.3028661562986428	0.0	8.455245841015472	1.1153933805126028	0.0
257	2.294642857142857	8.534019258351499	0.9020287894560314	0.0	8.488827493782226	0.9116361970691399	0.0	8.424716825539752	0.4893552097480834	0.0	8.135409170174468	0.13698690993981624	0.0	8.2728886968121	-0.0022824024293824833	0.0	8.221017890237267	0.0005695494917849292	0.0	8.062671487146194	0.1038669404752172	0.0	8.589795904801765	0.9074098552278451	0.0	8.806353569204877	0.6017482761600951	0.0	8.447577637408818	0.5154581230529571	0.0	8.451648247159701	0.363061511959961	0.0	8.435408009846965	0.3857877001707138	0.0	8.376395461358069	0.5315742211635179	0.0	8.709863298464816	1.462183938387961	0.0	8.858591128003187	1.6886890027587065	0.0	8.872382008497258	1.5437902773894105	0.0	8.705592475225815	1.3926365196642738	0.0	8.711900393630577	1.1047556734433936	0.0	8.92888534662453	1.1613779008478553	0.0	8.633422329220034	1.4313873908245471	0.0	8.434164803737207	1.3223317474982295	0.0	8.4800055233587	1.126876994962206	0.0
258	2.3035714285714284	8.587808436596855	0.9032651335951566	0.0	8.539116308600036	0.9124716627622048	0.0	8.446031052576835	0.4985920944957993	0.0	8.145123157845605	0.14986801868989078	0.0	8.26819616366633	0.0013819102849373687	0.0	8.217175452454104	0.007547446457710032	0.0	8.072158580346573	0.1201342246816441	0.0	8.646790427182435	0.9084074622751422	0.0	8.88046442648799	0.6192958794729874	0.0	8.532897597760943	0.48682460044031883	0.0	8.562221201884473	0.3299165143760233	0.0	8.545350386986152	0.3545400695192159	0.0	8.461144238343095	0.49359576201473815	0.0	8.758528371301164	1.4683843233800278	0.0	8.909750097197552	1.6927024075951334	0.0	8.922275774007945	1.5484511228261681	0.0	8.762899128352315	1.4002129960971637	0.0	8.778632517570827	1.1126174839065663	0.0	8.98694321491811	1.1827521925002122	0.0	8.676032874640265	1.4393634678547589	0.0	8.472424955154041	1.3399162939190405	0.0	8.507610391408143	1.1358918323074234	0.0
